<svg width="24.000000" height="24.000000" viewBox="0 0 24 24" fill="none" xmlns="http://www.w3.org/2000/svg" xmlns:xlink="http://www.w3.org/1999/xlink">
	<desc>
			Created with Pixso.
	</desc>
	<defs/>
	<path id="Vector" d="M18.4431 24C13.5536 23.9937 8.86624 22.0444 5.40886 18.5801C1.95148 15.1157 0.0063324 10.4194 0 5.52002C0 4.05615 0.580414 2.65186 1.61354 1.6167C2.64668 0.581543 4.04791 0 5.50899 0C5.81837 -0.00244141 6.12724 0.0258789 6.43114 0.0839844C6.72491 0.12793 7.01373 0.200195 7.29341 0.300293C7.49011 0.369141 7.66541 0.48877 7.80193 0.646484C7.93845 0.804199 8.03149 0.995117 8.07185 1.2002L9.71257 8.3999C9.75679 8.59521 9.75146 8.79883 9.69708 8.9917C9.64268 9.18457 9.54097 9.36084 9.4012 9.50391C9.24551 9.67188 9.23354 9.68408 7.76048 10.4521C8.94011 13.0449 11.0098 15.1274 13.5928 16.3198C14.3712 14.832 14.3832 14.8198 14.5509 14.6641C14.6939 14.5239 14.8697 14.4219 15.0622 14.3677C15.2546 14.313 15.4576 14.3076 15.6527 14.3521L22.8383 15.9961C23.0363 16.042 23.2193 16.1377 23.3702 16.2739C23.521 16.4106 23.6347 16.583 23.7006 16.7759C23.8017 17.0605 23.8778 17.354 23.9281 17.6519C23.9763 17.9536 24.0004 18.2583 24 18.564C23.9779 20.0215 23.3812 21.4111 22.3401 22.4297C21.299 23.4482 19.898 24.0127 18.4431 24Z" fill="#827679" fill-opacity="1.000000" fill-rule="nonzero"/>
</svg>
