<svg width="16.333328" height="21.000000" viewBox="0 0 16.3333 21" fill="none" xmlns="http://www.w3.org/2000/svg" xmlns:xlink="http://www.w3.org/1999/xlink">
	<desc>
			Created with Pixso.
	</desc>
	<defs/>
	<path id="Vector" d="M8.16664 9.3335C9.08961 9.3335 9.99187 9.05957 10.7593 8.54688C11.5267 8.03418 12.1249 7.30518 12.4781 6.45264C12.8313 5.59961 12.9237 4.66162 12.7436 3.75635C12.5636 2.85107 12.1191 2.01953 11.4665 1.3667C10.8138 0.714355 9.9823 0.269531 9.07706 0.0898438C8.17181 -0.090332 7.23351 0.00195312 6.38078 0.355469C5.52806 0.708496 4.79922 1.30664 4.28644 2.07422C3.77367 2.84131 3.49997 3.74365 3.49997 4.6665C3.49997 5.9043 3.99164 7.09131 4.86681 7.96631C5.74197 8.8418 6.92896 9.3335 8.16664 9.3335Z" fill="#6F6567" fill-opacity="1.000000" fill-rule="nonzero"/>
	<path id="Vector" d="M15.1667 21C15.4761 21 15.7728 20.877 15.9916 20.6582C16.2104 20.4395 16.3333 20.1426 16.3333 19.833C16.3333 17.667 15.4729 15.5898 13.9414 14.0586C12.4098 12.5269 10.3326 11.6665 8.16667 11.6665C6.00073 11.6665 3.92351 12.5269 2.39197 14.0586C0.860413 15.5898 0 17.667 0 19.833C0 20.1426 0.12291 20.4395 0.341705 20.6582C0.560501 20.877 0.857254 21 1.16667 21L15.1667 21Z" fill="#6F6567" fill-opacity="1.000000" fill-rule="nonzero"/>
</svg>
