<svg width="42.000000" height="42.000000" viewBox="0 0 42 42" fill="none" xmlns="http://www.w3.org/2000/svg" xmlns:xlink="http://www.w3.org/1999/xlink">
	<desc>
			Created with Pixso.
	</desc>
	<defs/>
	<path id="Vector" d="M24.1355 29.2769C25.2881 28.7994 26.3354 28.0997 27.2175 27.2175C28.0996 26.3354 28.7993 25.2881 29.2769 24.1355C29.7544 22.9829 30 21.7476 30 20.5C30 19.2524 29.7544 18.0171 29.2769 16.8645C28.7993 15.7119 28.0996 14.6646 27.2175 13.7825C26.3354 12.9003 25.2881 12.2006 24.1355 11.7231C22.9829 11.2457 21.7476 11 20.5 11C17.9805 11 15.564 12.0009 13.7825 13.7825C12.001 15.5641 11 17.9804 11 20.5C11 23.0196 12.001 25.4359 13.7825 27.2175C15.564 28.9991 17.9805 30 20.5 30C21.7476 30 22.9829 29.7543 24.1355 29.2769ZM31 31L29 29" stroke="#F5EBEB" stroke-opacity="1.000000" stroke-width="2.000000" stroke-linejoin="round" stroke-linecap="round"/>
</svg>
