<svg width="58" height="76" viewBox="0 0 58 76" fill="none" xmlns="http://www.w3.org/2000/svg">
<g clip-path="url(#clip0_119_807)">
<path d="M25.1283 50.3826C24.7867 50.3839 24.4493 50.3038 24.1407 50.1483C23.8321 49.9928 23.5603 49.7659 23.3451 49.4842L12.3031 34.9141C11.9669 34.4796 11.783 33.9346 11.783 33.3721C11.783 32.8096 11.9669 32.2646 12.3031 31.8301L23.7337 17.2601C24.1218 16.7641 24.6794 16.4523 25.2839 16.3931C25.8884 16.3339 26.4903 16.5322 26.9572 16.9444C27.424 17.3566 27.7176 17.9489 27.7734 18.591C27.8291 19.2331 27.6424 19.8724 27.2544 20.3683L17.0354 33.3842L26.9114 46.4002C27.191 46.7566 27.3686 47.1907 27.4232 47.6509C27.4778 48.1112 27.4071 48.5785 27.2195 48.9975C27.0319 49.4164 26.7353 49.7695 26.3646 50.015C25.994 50.2605 25.565 50.3881 25.1283 50.3826Z" fill="#B02E51"/>
</g>
<defs>
<clipPath id="clip0_119_807">
<rect width="69.2929" height="74.1" fill="white" transform="translate(-11.2929 0.950195)"/>
</clipPath>
</defs>
</svg>
