<svg width="58" height="76" viewBox="0 0 58 76" fill="none" xmlns="http://www.w3.org/2000/svg">
<g clip-path="url(#clip0_119_808)">
<path d="M32.8718 25.6174C33.2133 25.6161 33.5508 25.6962 33.8594 25.8517C34.168 26.0072 34.4398 26.2341 34.655 26.5158L45.697 41.0859C46.0332 41.5204 46.217 42.0654 46.217 42.6279C46.217 43.1904 46.0332 43.7354 45.697 44.1699L34.2663 58.7399C33.8783 59.2359 33.3207 59.5477 32.7162 59.6069C32.1117 59.6661 31.5098 59.4678 31.0429 59.0556C30.576 58.6434 30.2824 58.0511 30.2267 57.409C30.171 56.7669 30.3577 56.1276 30.7457 55.6317L40.9647 42.6158L31.0886 29.5998C30.8091 29.2434 30.6315 28.8093 30.5769 28.3491C30.5223 27.8888 30.593 27.4215 30.7806 27.0025C30.9682 26.5836 31.2648 26.2305 31.6354 25.985C32.006 25.7395 32.4351 25.6119 32.8718 25.6174Z" fill="#B02E51"/>
</g>
<defs>
<clipPath id="clip0_119_808">
<rect width="69.2929" height="74.1" fill="white" transform="matrix(-1 0 0 -1 69.293 75.0498)"/>
</clipPath>
</defs>
</svg>
